<?xml version="1.0" standalone="no"?>
<!DOCTYPE svg PUBLIC "-//W3C//DTD SVG 20010904//EN"
 "http://www.w3.org/TR/2001/REC-SVG-20010904/DTD/svg10.dtd">
<svg version="1.0" xmlns="http://www.w3.org/2000/svg"
 width="1410.000000pt" height="352.000000pt" viewBox="0 0 1410.000000 352.000000"
 preserveAspectRatio="xMidYMid meet">

<g transform="translate(0.000000,352.000000) scale(0.100000,-0.100000)"
fill="#000000" stroke="none">
<path d="M3586 2447 c-15 -15 -32 -56 -46 -111 -13 -49 -29 -94 -36 -101 -7
-7 -35 -15 -63 -19 -119 -16 -146 -50 -56 -72 200 -51 881 -40 986 16 l23 13
-21 17 c-12 9 -55 22 -97 29 l-75 12 -15 52 c-8 29 -19 71 -25 93 -14 52 -46
94 -73 94 -11 0 -67 -14 -124 -31 l-104 -31 -104 31 c-124 37 -140 38 -170 8z"/>
<path d="M3510 1999 c0 -34 28 -116 55 -159 35 -55 86 -100 145 -129 47 -22
69 -26 145 -26 77 0 98 4 147 27 106 49 187 159 196 262 l4 51 -346 0 -346 0
0 -26z"/>
<path d="M5080 1600 l0 -230 55 0 55 0 0 90 0 90 85 0 85 0 0 -90 0 -90 55 0
55 0 0 230 0 230 -55 0 -55 0 0 -90 0 -90 -85 0 -85 0 0 90 0 90 -55 0 -55 0
0 -230z"/>
<path d="M6320 1600 l0 -230 55 0 54 0 3 57 c2 31 8 58 14 60 7 2 34 -23 60
-56 l49 -60 63 0 63 -1 -73 88 c-41 48 -78 93 -82 101 -6 9 13 34 60 82 l68
69 -64 0 c-63 0 -65 -1 -112 -47 l-48 -47 0 107 0 107 -55 0 -55 0 0 -230z"/>
<path d="M6730 1600 l0 -230 123 0 c148 0 199 17 223 75 25 61 -6 154 -58 170
-20 7 -20 8 6 31 31 30 35 81 9 125 -26 44 -77 59 -198 59 l-105 0 0 -230z
m203 121 c5 -5 7 -19 5 -32 -3 -21 -9 -24 -50 -27 l-48 -3 0 42 0 42 43 -7
c23 -4 46 -11 50 -15z m25 -167 c52 -36 10 -94 -68 -94 l-50 0 0 55 0 55 48 0
c27 0 57 -7 70 -16z"/>
<path d="M9480 1600 l0 -230 113 0 c120 0 175 16 225 63 94 87 87 267 -14 343
-54 42 -100 53 -216 54 l-108 0 0 -230z m225 116 c64 -27 90 -100 61 -169 -22
-52 -50 -70 -116 -75 l-60 -4 0 131 0 131 40 0 c22 0 56 -6 75 -14z"/>
<path d="M10400 1750 c0 -36 -2 -40 -25 -40 -23 0 -25 -4 -25 -45 0 -41 2 -45
24 -45 24 0 24 -2 28 -105 3 -92 6 -107 25 -127 18 -18 33 -22 78 -21 30 1 59
4 65 8 5 3 10 24 10 45 0 38 -1 39 -37 42 l-38 3 -3 77 -3 77 38 3 c37 3 38 4
41 46 l3 42 -40 0 -41 0 0 40 0 40 -50 0 -50 0 0 -40z"/>
<path d="M3392 1676 c-128 -66 -160 -90 -193 -143 -29 -47 -119 -321 -119
-363 1 -50 32 -113 72 -143 38 -30 198 -72 198 -53 0 6 -11 76 -25 156 -14 80
-25 160 -25 178 0 42 21 83 60 116 l32 26 459 0 c501 0 496 1 537 -57 10 -16
22 -39 25 -52 5 -19 -26 -245 -49 -352 l-5 -27 73 17 c140 33 198 87 198 183
0 43 -80 300 -113 364 -26 51 -91 101 -207 159 l-111 56 -47 -42 c-172 -151
-426 -151 -591 1 -24 22 -44 40 -45 40 0 -1 -56 -29 -124 -64z"/>
<path d="M5624 1695 c-63 -31 -94 -82 -94 -151 1 -128 105 -212 211 -171 21 8
39 11 39 6 0 -5 25 -9 55 -9 l55 0 0 170 0 170 -55 0 c-30 0 -55 -4 -55 -9 0
-6 -16 -3 -35 5 -47 19 -63 18 -121 -11z m137 -94 c30 -24 33 -89 5 -120 -27
-30 -80 -28 -113 5 -21 21 -24 32 -20 61 4 20 14 44 23 54 22 25 75 24 105 0z"/>
<path d="M6066 1705 c-89 -32 -134 -115 -114 -211 23 -105 151 -161 253 -111
24 11 65 48 65 57 0 4 -18 15 -40 25 -31 14 -43 16 -52 7 -7 -7 -28 -12 -48
-12 -70 0 -104 76 -59 134 22 28 60 34 102 15 19 -9 32 -7 63 9 l38 20 -30 30
c-28 28 -87 52 -124 52 -8 -1 -32 -7 -54 -15z"/>
<path d="M7323 1709 c-17 -5 -41 -21 -52 -35 l-21 -27 0 32 c0 31 0 31 -55 31
l-55 0 0 -170 0 -170 54 0 54 0 4 90 c3 81 5 92 30 116 15 15 43 30 65 33 38
6 38 6 41 59 3 57 0 60 -65 41z"/>
<path d="M7558 1706 c-58 -21 -86 -43 -108 -86 -65 -128 43 -277 185 -256 82
13 144 73 152 150 11 90 -42 173 -125 196 -47 13 -58 12 -104 -4z m109 -112
c21 -21 24 -32 20 -61 -8 -46 -33 -73 -69 -73 -64 0 -98 46 -78 106 20 59 82
73 127 28z"/>
<path d="M8543 1709 c-68 -20 -95 -102 -50 -155 13 -14 48 -36 78 -48 30 -13
54 -29 54 -37 0 -21 -53 -24 -75 -4 -16 14 -24 15 -54 5 -20 -6 -36 -16 -36
-22 0 -22 68 -77 104 -84 44 -8 102 7 140 37 21 16 26 29 26 64 0 56 -26 85
-103 115 -32 12 -56 28 -54 34 5 17 46 19 53 3 4 -11 13 -12 49 -4 25 6 45 14
45 18 0 20 -55 70 -88 79 -43 11 -46 11 -89 -1z"/>
<path d="M8895 1704 c-74 -27 -115 -83 -115 -159 0 -59 19 -104 59 -138 63
-53 158 -60 230 -16 l34 21 -30 30 c-26 25 -34 28 -51 19 -29 -15 -68 -14
-102 4 -53 27 -34 35 85 35 l115 0 0 48 c0 66 -33 121 -90 150 -51 25 -79 27
-135 6z m90 -88 c55 -23 43 -36 -32 -36 l-68 1 28 24 c33 29 29 29 72 11z"/>
<path d="M9363 1709 c-17 -5 -43 -23 -57 -40 l-26 -31 0 36 0 36 -50 0 -50 0
0 -170 0 -170 50 0 50 0 0 67 c0 109 38 168 115 175 29 3 30 5 30 53 0 55 -7
60 -62 44z"/>
<path d="M10055 1708 c-78 -28 -115 -82 -115 -167 0 -125 106 -209 211 -168
21 8 39 11 39 6 0 -5 25 -9 55 -9 l55 0 0 170 0 170 -55 0 c-30 0 -55 -4 -55
-9 0 -6 -16 -3 -35 5 -40 16 -58 17 -100 2z m115 -106 c27 -22 30 -81 6 -117
-13 -19 -25 -25 -53 -25 -73 0 -108 75 -62 134 25 31 75 35 109 8z"/>
<path d="M10737 1706 c-75 -27 -117 -88 -117 -168 0 -119 113 -206 213 -164
20 8 37 11 37 5 0 -5 25 -9 55 -9 l55 0 0 170 0 170 -55 0 c-34 0 -55 -4 -55
-11 0 -8 -4 -8 -12 -1 -23 18 -82 22 -121 8z m123 -113 c40 -51 7 -133 -52
-133 -64 0 -98 46 -78 106 13 40 33 53 77 54 23 0 38 -8 53 -27z"/>
<path d="M7876 1583 c26 -71 53 -147 61 -170 l15 -43 51 0 52 0 36 103 c33 91
38 99 46 77 5 -14 22 -60 37 -102 l28 -78 52 0 51 0 58 163 c31 89 57 166 57
170 0 4 -23 7 -52 5 l-51 -3 -31 -92 c-17 -50 -34 -94 -37 -97 -3 -3 -21 38
-40 92 l-34 97 -49 0 -49 0 -37 -105 -38 -105 -33 107 -34 108 -52 0 -52 0 45
-127z"/>
<path d="M3406 1344 c-9 -8 -16 -20 -16 -25 0 -6 20 -131 45 -279 25 -148 45
-271 45 -274 0 -2 7 -12 16 -20 13 -14 60 -16 358 -16 260 0 346 3 359 13 26
18 115 556 99 592 l-12 25 -439 0 c-386 0 -441 -2 -455 -16z m488 -255 c33
-26 33 -53 1 -85 -29 -29 -58 -26 -88 8 -20 24 -15 55 15 81 26 22 40 22 72
-4z"/>
</g>
</svg>
